<svg class="icon" style="width: 1em; height: 1em;vertical-align: middle;fill: currentColor;overflow: hidden;" viewBox="0 0 1024 1024" version="1.1" xmlns="http://www.w3.org/2000/svg"><path d="M763.340887 545.484625c38.567387 101.653191-28.008914 234.544851-28.008914 234.544851s28.358885-100.56337-67.01223-189.913351c-57.328683-53.6632-156.364257-33.463136-156.364257-33.463136l0 134.069485-268.051989-223.37751 268.051989-223.376487 0 133.939525C511.955486 377.908002 710.114638 405.698952 763.340887 545.484625zM958.70846 243.968477l0 536.060999c0 98.642624-79.971379 178.744987-178.700985 178.744987L243.903497 958.774463c-98.642624 0-178.61298-80.101339-178.61298-178.744987L65.290517 243.968477c0-98.772584 79.969333-178.744987 178.61298-178.744987l536.105001 0C878.73708 65.22349 958.70846 145.19487 958.70846 243.968477zM869.44546 288.599977c0-73.994248-60.119239-134.069485-134.113487-134.069485L288.667004 154.530492c-74.082252 0-134.071532 60.075237-134.071532 134.069485l0 446.797999c0 73.994248 59.989279 133.983527 134.071532 133.983527l446.664969 0c73.994248 0 134.113487-59.989279 134.113487-133.983527L869.44546 288.599977z" /></svg>